<?xml version="1.0" encoding="utf-8"?>
<!-- Generator: Adobe Illustrator 23.0.1, SVG Export Plug-In . SVG Version: 6.00 Build 0)  -->
<svg version="1.1" id="Layer_1" xmlns="http://www.w3.org/2000/svg" xmlns:xlink="http://www.w3.org/1999/xlink" x="0px" y="0px"
	 viewBox="0 0 140 668" style="enable-background:new 0 0 140 668;" xml:space="preserve">
<style type="text/css">
	.st0{fill:#BE3820;}
</style>
<g>
	<path class="st0" d="M5.7,654.8c0-0.5-0.2-1.1-0.6-1.4c-0.4-0.4-0.9-0.6-1.4-0.6c-0.5,0-1.1,0.2-1.4,0.6c-0.4,0.4-0.6,0.9-0.6,1.4
		s0.2,1.1,0.6,1.4c0.4,0.4,0.9,0.6,1.4,0.6c0.5,0,1.1-0.2,1.4-0.6C5.5,655.9,5.7,655.4,5.7,654.8z"/>
	<path class="st0" d="M5.7,334c0-1.1-0.9-2-2-2c-1.1,0-2,0.9-2,2c0,1.1,0.9,2,2,2C4.8,336,5.7,335.1,5.7,334z"/>
	<path class="st0" d="M5.7,479.8c0-1.1-0.9-2-2-2c-1.1,0-2,0.9-2,2c0,1.1,0.9,2,2,2C4.8,481.9,5.7,481,5.7,479.8z"/>
	<path class="st0" d="M5.7,567.3c0-1.1-0.9-2-2-2c-1.1,0-2,0.9-2,2c0,1.1,0.9,2,2,2C4.8,569.4,5.7,568.5,5.7,567.3z"/>
	<path class="st0" d="M5.7,596.5c0-1.1-0.9-2-2-2c-1.1,0-2,0.9-2,2c0,1.1,0.9,2,2,2C4.8,598.5,5.7,597.6,5.7,596.5z"/>
	<path class="st0" d="M5.7,275.7c0-1.1-0.9-2-2-2c-1.1,0-2,0.9-2,2s0.9,2,2,2C4.8,277.7,5.7,276.8,5.7,275.7z"/>
	<path class="st0" d="M5.7,71.5c0-1.1-0.9-2-2-2c-1.1,0-2,0.9-2,2c0,1.1,0.9,2,2,2C4.8,73.5,5.7,72.6,5.7,71.5z"/>
	<path class="st0" d="M5.7,188.2c0-1.1-0.9-2-2-2c-1.1,0-2,0.9-2,2s0.9,2,2,2C4.8,190.2,5.7,189.3,5.7,188.2z"/>
	<path class="st0" d="M5.7,100.7c0-1.1-0.9-2-2-2c-1.1,0-2,0.9-2,2c0,1.1,0.9,2,2,2C4.8,102.7,5.7,101.8,5.7,100.7z"/>
	<path class="st0" d="M5.7,538.2c0-1.1-0.9-2-2-2c-1.1,0-2,0.9-2,2c0,1.1,0.9,2,2,2C4.8,540.2,5.7,539.3,5.7,538.2z"/>
	<path class="st0" d="M5.7,246.5c0-1.1-0.9-2-2-2c-1.1,0-2,0.9-2,2c0,1.1,0.9,2,2,2C4.8,248.5,5.7,247.6,5.7,246.5z"/>
	<path class="st0" d="M5.7,363.2c0-1.1-0.9-2-2-2c-1.1,0-2,0.9-2,2c0,1.1,0.9,2,2,2C4.8,365.2,5.7,364.3,5.7,363.2z"/>
	<path class="st0" d="M5.7,129.8c0-1.1-0.9-2-2-2c-1.1,0-2,0.9-2,2c0,1.1,0.9,2,2,2C4.8,131.9,5.7,131,5.7,129.8z"/>
	<path class="st0" d="M5.7,509c0-1.1-0.9-2-2-2c-1.1,0-2,0.9-2,2c0,1.1,0.9,2,2,2C4.8,511,5.7,510.1,5.7,509z"/>
	<path class="st0" d="M5.7,42.3c0-1.1-0.9-2-2-2c-1.1,0-2,0.9-2,2c0,1.1,0.9,2,2,2C4.8,44.4,5.7,43.4,5.7,42.3z"/>
	<path class="st0" d="M5.7,217.3c0-1.1-0.9-2-2-2c-1.1,0-2,0.9-2,2c0,1.1,0.9,2,2,2C4.8,219.4,5.7,218.5,5.7,217.3z"/>
	<path class="st0" d="M5.7,450.7c0-1.1-0.9-2-2-2c-1.1,0-2,0.9-2,2c0,1.1,0.9,2,2,2C4.8,452.7,5.7,451.8,5.7,450.7z"/>
	<path class="st0" d="M5.7,392.3c0-1.1-0.9-2-2-2c-1.1,0-2,0.9-2,2c0,1.1,0.9,2,2,2C4.8,394.4,5.7,393.5,5.7,392.3z"/>
	<path class="st0" d="M5.7,304.8c0-1.1-0.9-2-2-2c-1.1,0-2,0.9-2,2c0,1.1,0.9,2,2,2C4.8,306.9,5.7,306,5.7,304.8z"/>
	<path class="st0" d="M5.7,421.5c0-1.1-0.9-2-2-2c-1.1,0-2,0.9-2,2s0.9,2,2,2C4.8,423.5,5.7,422.6,5.7,421.5z"/>
	<path class="st0" d="M5.7,159c0-1.1-0.9-2-2-2c-1.1,0-2,0.9-2,2c0,1.1,0.9,2,2,2C4.8,161,5.7,160.1,5.7,159z"/>
	<path class="st0" d="M5.7,625.7c0-1.1-0.9-2-2-2c-1.1,0-2,0.9-2,2c0,1.1,0.9,2,2,2C4.8,627.7,5.7,626.8,5.7,625.7z"/>
	<path class="st0" d="M5.7,13.2c0-0.5-0.2-1.1-0.6-1.4c-0.4-0.4-0.9-0.6-1.4-0.6c-0.5,0-1.1,0.2-1.4,0.6c-0.4,0.4-0.6,0.9-0.6,1.4
		c0,0.5,0.2,1.1,0.6,1.4c0.4,0.4,0.9,0.6,1.4,0.6c0.5,0,1.1-0.2,1.4-0.6S5.7,13.7,5.7,13.2z"/>
	<path class="st0" d="M32,654.8c0-0.5-0.2-1.1-0.6-1.4c-0.4-0.4-0.9-0.6-1.4-0.6c-0.5,0-1.1,0.2-1.4,0.6c-0.4,0.4-0.6,0.9-0.6,1.4
		s0.2,1.1,0.6,1.4c0.4,0.4,0.9,0.6,1.4,0.6c0.5,0,1.1-0.2,1.4-0.6C31.7,655.9,32,655.4,32,654.8z"/>
	<path class="st0" d="M32,217.3c0-1.1-0.9-2-2-2c-1.1,0-2,0.9-2,2c0,1.1,0.9,2,2,2C31,219.4,32,218.5,32,217.3z"/>
	<path class="st0" d="M32,159c0-1.1-0.9-2-2-2c-1.1,0-2,0.9-2,2c0,1.1,0.9,2,2,2C31,161,32,160.1,32,159z"/>
	<path class="st0" d="M32,129.8c0-1.1-0.9-2-2-2c-1.1,0-2,0.9-2,2c0,1.1,0.9,2,2,2C31,131.9,32,131,32,129.8z"/>
	<path class="st0" d="M32,363.2c0-1.1-0.9-2-2-2c-1.1,0-2,0.9-2,2c0,1.1,0.9,2,2,2C31,365.2,32,364.3,32,363.2z"/>
	<path class="st0" d="M32,479.8c0-1.1-0.9-2-2-2c-1.1,0-2,0.9-2,2c0,1.1,0.9,2,2,2C31,481.9,32,481,32,479.8z"/>
	<path class="st0" d="M32,509c0-1.1-0.9-2-2-2c-1.1,0-2,0.9-2,2c0,1.1,0.9,2,2,2C31,511,32,510.1,32,509z"/>
	<path class="st0" d="M32,392.3c0-1.1-0.9-2-2-2c-1.1,0-2,0.9-2,2c0,1.1,0.9,2,2,2C31,394.4,32,393.5,32,392.3z"/>
	<path class="st0" d="M32,450.7c0-1.1-0.9-2-2-2c-1.1,0-2,0.9-2,2c0,1.1,0.9,2,2,2C31,452.7,32,451.8,32,450.7z"/>
	<path class="st0" d="M32,42.3c0-1.1-0.9-2-2-2c-1.1,0-2,0.9-2,2c0,1.1,0.9,2,2,2C31,44.4,32,43.4,32,42.3z"/>
	<path class="st0" d="M32,71.5c0-1.1-0.9-2-2-2c-1.1,0-2,0.9-2,2c0,1.1,0.9,2,2,2C31,73.5,32,72.6,32,71.5z"/>
	<path class="st0" d="M32,246.5c0-1.1-0.9-2-2-2c-1.1,0-2,0.9-2,2c0,1.1,0.9,2,2,2C31,248.5,32,247.6,32,246.5z"/>
	<path class="st0" d="M32,304.8c0-1.1-0.9-2-2-2c-1.1,0-2,0.9-2,2c0,1.1,0.9,2,2,2C31,306.9,32,306,32,304.8z"/>
	<path class="st0" d="M32,188.2c0-1.1-0.9-2-2-2c-1.1,0-2,0.9-2,2s0.9,2,2,2C31,190.2,32,189.3,32,188.2z"/>
	<path class="st0" d="M32,275.7c0-1.1-0.9-2-2-2c-1.1,0-2,0.9-2,2s0.9,2,2,2C31,277.7,32,276.8,32,275.7z"/>
	<path class="st0" d="M32,625.7c0-1.1-0.9-2-2-2c-1.1,0-2,0.9-2,2c0,1.1,0.9,2,2,2C31,627.7,32,626.8,32,625.7z"/>
	<path class="st0" d="M32,596.5c0-1.1-0.9-2-2-2c-1.1,0-2,0.9-2,2c0,1.1,0.9,2,2,2C31,598.5,32,597.6,32,596.5z"/>
	<path class="st0" d="M32,538.2c0-1.1-0.9-2-2-2c-1.1,0-2,0.9-2,2c0,1.1,0.9,2,2,2C31,540.2,32,539.3,32,538.2z"/>
	<path class="st0" d="M32,100.7c0-1.1-0.9-2-2-2c-1.1,0-2,0.9-2,2c0,1.1,0.9,2,2,2C31,102.7,32,101.8,32,100.7z"/>
	<path class="st0" d="M32,567.3c0-1.1-0.9-2-2-2c-1.1,0-2,0.9-2,2c0,1.1,0.9,2,2,2C31,569.4,32,568.5,32,567.3z"/>
	<path class="st0" d="M32,421.5c0-1.1-0.9-2-2-2c-1.1,0-2,0.9-2,2s0.9,2,2,2C31,423.5,32,422.6,32,421.5z"/>
	<path class="st0" d="M32,334c0-1.1-0.9-2-2-2c-1.1,0-2,0.9-2,2c0,1.1,0.9,2,2,2C31,336,32,335.1,32,334z"/>
	<path class="st0" d="M32,13.2c0-0.5-0.2-1.1-0.6-1.4c-0.4-0.4-0.9-0.6-1.4-0.6c-0.5,0-1.1,0.2-1.4,0.6c-0.4,0.4-0.6,0.9-0.6,1.4
		c0,0.5,0.2,1.1,0.6,1.4c0.4,0.4,0.9,0.6,1.4,0.6c0.5,0,1.1-0.2,1.4-0.6S32,13.7,32,13.2z"/>
	<path class="st0" d="M58.2,654.8c0-0.5-0.2-1.1-0.6-1.4c-0.4-0.4-0.9-0.6-1.4-0.6s-1.1,0.2-1.4,0.6c-0.4,0.4-0.6,0.9-0.6,1.4
		s0.2,1.1,0.6,1.4c0.4,0.4,0.9,0.6,1.4,0.6s1.1-0.2,1.4-0.6C58,655.9,58.2,655.4,58.2,654.8z"/>
	<path class="st0" d="M58.2,392.3c0-1.1-0.9-2-2-2c-1.1,0-2,0.9-2,2c0,1.1,0.9,2,2,2C57.3,394.4,58.2,393.5,58.2,392.3z"/>
	<path class="st0" d="M58.2,304.8c0-1.1-0.9-2-2-2c-1.1,0-2,0.9-2,2c0,1.1,0.9,2,2,2C57.3,306.9,58.2,306,58.2,304.8z"/>
	<path class="st0" d="M58.2,363.2c0-1.1-0.9-2-2-2c-1.1,0-2,0.9-2,2c0,1.1,0.9,2,2,2C57.3,365.2,58.2,364.3,58.2,363.2z"/>
	<path class="st0" d="M58.2,188.2c0-1.1-0.9-2-2-2c-1.1,0-2,0.9-2,2s0.9,2,2,2C57.3,190.2,58.2,189.3,58.2,188.2z"/>
	<path class="st0" d="M58.2,275.7c0-1.1-0.9-2-2-2c-1.1,0-2,0.9-2,2s0.9,2,2,2C57.3,277.7,58.2,276.8,58.2,275.7z"/>
	<path class="st0" d="M58.2,334c0-1.1-0.9-2-2-2c-1.1,0-2,0.9-2,2c0,1.1,0.9,2,2,2C57.3,336,58.2,335.1,58.2,334z"/>
	<path class="st0" d="M58.2,246.5c0-1.1-0.9-2-2-2c-1.1,0-2,0.9-2,2c0,1.1,0.9,2,2,2C57.3,248.5,58.2,247.6,58.2,246.5z"/>
	<path class="st0" d="M58.2,217.3c0-1.1-0.9-2-2-2c-1.1,0-2,0.9-2,2c0,1.1,0.9,2,2,2C57.3,219.4,58.2,218.5,58.2,217.3z"/>
	<path class="st0" d="M58.2,509c0-1.1-0.9-2-2-2c-1.1,0-2,0.9-2,2c0,1.1,0.9,2,2,2C57.3,511,58.2,510.1,58.2,509z"/>
	<path class="st0" d="M58.2,129.8c0-1.1-0.9-2-2-2c-1.1,0-2,0.9-2,2c0,1.1,0.9,2,2,2C57.3,131.9,58.2,131,58.2,129.8z"/>
	<path class="st0" d="M58.2,42.3c0-1.1-0.9-2-2-2c-1.1,0-2,0.9-2,2c0,1.1,0.9,2,2,2C57.3,44.4,58.2,43.4,58.2,42.3z"/>
	<path class="st0" d="M58.2,100.7c0-1.1-0.9-2-2-2c-1.1,0-2,0.9-2,2c0,1.1,0.9,2,2,2C57.3,102.7,58.2,101.8,58.2,100.7z"/>
	<path class="st0" d="M58.2,479.8c0-1.1-0.9-2-2-2c-1.1,0-2,0.9-2,2c0,1.1,0.9,2,2,2C57.3,481.9,58.2,481,58.2,479.8z"/>
	<path class="st0" d="M58.2,596.5c0-1.1-0.9-2-2-2c-1.1,0-2,0.9-2,2c0,1.1,0.9,2,2,2C57.3,598.5,58.2,597.6,58.2,596.5z"/>
	<path class="st0" d="M58.2,421.5c0-1.1-0.9-2-2-2c-1.1,0-2,0.9-2,2s0.9,2,2,2C57.3,423.5,58.2,422.6,58.2,421.5z"/>
	<path class="st0" d="M58.2,71.5c0-1.1-0.9-2-2-2c-1.1,0-2,0.9-2,2c0,1.1,0.9,2,2,2C57.3,73.5,58.2,72.6,58.2,71.5z"/>
	<path class="st0" d="M58.2,159c0-1.1-0.9-2-2-2c-1.1,0-2,0.9-2,2c0,1.1,0.9,2,2,2C57.3,161,58.2,160.1,58.2,159z"/>
	<path class="st0" d="M58.2,625.7c0-1.1-0.9-2-2-2c-1.1,0-2,0.9-2,2c0,1.1,0.9,2,2,2C57.3,627.7,58.2,626.8,58.2,625.7z"/>
	<path class="st0" d="M58.2,538.2c0-1.1-0.9-2-2-2c-1.1,0-2,0.9-2,2c0,1.1,0.9,2,2,2C57.3,540.2,58.2,539.3,58.2,538.2z"/>
	<path class="st0" d="M58.2,567.3c0-1.1-0.9-2-2-2c-1.1,0-2,0.9-2,2c0,1.1,0.9,2,2,2C57.3,569.4,58.2,568.5,58.2,567.3z"/>
	<path class="st0" d="M58.2,450.7c0-1.1-0.9-2-2-2c-1.1,0-2,0.9-2,2c0,1.1,0.9,2,2,2C57.3,452.7,58.2,451.8,58.2,450.7z"/>
	<path class="st0" d="M58.2,13.2c0-0.5-0.2-1.1-0.6-1.4c-0.4-0.4-0.9-0.6-1.4-0.6s-1.1,0.2-1.4,0.6c-0.4,0.4-0.6,0.9-0.6,1.4
		c0,0.5,0.2,1.1,0.6,1.4c0.4,0.4,0.9,0.6,1.4,0.6s1.1-0.2,1.4-0.6C58,14.2,58.2,13.7,58.2,13.2z"/>
	<path class="st0" d="M84.5,654.8c0-0.5-0.2-1.1-0.6-1.4c-0.4-0.4-0.9-0.6-1.4-0.6c-0.5,0-1.1,0.2-1.4,0.6c-0.4,0.4-0.6,0.9-0.6,1.4
		s0.2,1.1,0.6,1.4c0.4,0.4,0.9,0.6,1.4,0.6c0.5,0,1.1-0.2,1.4-0.6C84.3,655.9,84.5,655.4,84.5,654.8z"/>
	<path class="st0" d="M84.5,246.5c0-1.1-0.9-2-2-2c-1.1,0-2,0.9-2,2c0,1.1,0.9,2,2,2C83.6,248.5,84.5,247.6,84.5,246.5z"/>
	<path class="st0" d="M84.5,188.2c0-1.1-0.9-2-2-2c-1.1,0-2,0.9-2,2s0.9,2,2,2C83.6,190.2,84.5,189.3,84.5,188.2z"/>
	<path class="st0" d="M84.5,42.3c0-1.1-0.9-2-2-2c-1.1,0-2,0.9-2,2c0,1.1,0.9,2,2,2C83.6,44.4,84.5,43.4,84.5,42.3z"/>
	<path class="st0" d="M84.5,129.8c0-1.1-0.9-2-2-2c-1.1,0-2,0.9-2,2c0,1.1,0.9,2,2,2C83.6,131.9,84.5,131,84.5,129.8z"/>
	<path class="st0" d="M84.5,159c0-1.1-0.9-2-2-2c-1.1,0-2,0.9-2,2c0,1.1,0.9,2,2,2C83.6,161,84.5,160.1,84.5,159z"/>
	<path class="st0" d="M84.5,71.5c0-1.1-0.9-2-2-2c-1.1,0-2,0.9-2,2c0,1.1,0.9,2,2,2C83.6,73.5,84.5,72.6,84.5,71.5z"/>
	<path class="st0" d="M84.5,275.7c0-1.1-0.9-2-2-2c-1.1,0-2,0.9-2,2s0.9,2,2,2C83.6,277.7,84.5,276.8,84.5,275.7z"/>
	<path class="st0" d="M84.5,217.3c0-1.1-0.9-2-2-2c-1.1,0-2,0.9-2,2c0,1.1,0.9,2,2,2C83.6,219.4,84.5,218.5,84.5,217.3z"/>
	<path class="st0" d="M84.5,100.7c0-1.1-0.9-2-2-2c-1.1,0-2,0.9-2,2c0,1.1,0.9,2,2,2C83.6,102.7,84.5,101.8,84.5,100.7z"/>
	<path class="st0" d="M84.5,509c0-1.1-0.9-2-2-2c-1.1,0-2,0.9-2,2c0,1.1,0.9,2,2,2C83.6,511,84.5,510.1,84.5,509z"/>
	<path class="st0" d="M84.5,596.5c0-1.1-0.9-2-2-2c-1.1,0-2,0.9-2,2c0,1.1,0.9,2,2,2C83.6,598.5,84.5,597.6,84.5,596.5z"/>
	<path class="st0" d="M84.5,421.5c0-1.1-0.9-2-2-2c-1.1,0-2,0.9-2,2s0.9,2,2,2C83.6,423.5,84.5,422.6,84.5,421.5z"/>
	<path class="st0" d="M84.5,334c0-1.1-0.9-2-2-2c-1.1,0-2,0.9-2,2c0,1.1,0.9,2,2,2C83.6,336,84.5,335.1,84.5,334z"/>
	<path class="st0" d="M84.5,392.3c0-1.1-0.9-2-2-2c-1.1,0-2,0.9-2,2c0,1.1,0.9,2,2,2C83.6,394.4,84.5,393.5,84.5,392.3z"/>
	<path class="st0" d="M84.5,538.2c0-1.1-0.9-2-2-2c-1.1,0-2,0.9-2,2c0,1.1,0.9,2,2,2C83.6,540.2,84.5,539.3,84.5,538.2z"/>
	<path class="st0" d="M84.5,567.3c0-1.1-0.9-2-2-2c-1.1,0-2,0.9-2,2c0,1.1,0.9,2,2,2C83.6,569.4,84.5,568.5,84.5,567.3z"/>
	<path class="st0" d="M84.5,450.7c0-1.1-0.9-2-2-2c-1.1,0-2,0.9-2,2c0,1.1,0.9,2,2,2C83.6,452.7,84.5,451.8,84.5,450.7z"/>
	<path class="st0" d="M84.5,304.8c0-1.1-0.9-2-2-2c-1.1,0-2,0.9-2,2c0,1.1,0.9,2,2,2C83.6,306.9,84.5,306,84.5,304.8z"/>
	<path class="st0" d="M84.5,479.8c0-1.1-0.9-2-2-2c-1.1,0-2,0.9-2,2c0,1.1,0.9,2,2,2C83.6,481.9,84.5,481,84.5,479.8z"/>
	<path class="st0" d="M84.5,363.2c0-1.1-0.9-2-2-2c-1.1,0-2,0.9-2,2c0,1.1,0.9,2,2,2C83.6,365.2,84.5,364.3,84.5,363.2z"/>
	<path class="st0" d="M84.5,625.7c0-1.1-0.9-2-2-2c-1.1,0-2,0.9-2,2c0,1.1,0.9,2,2,2C83.6,627.7,84.5,626.8,84.5,625.7z"/>
	<path class="st0" d="M84.5,13.2c0-0.5-0.2-1.1-0.6-1.4c-0.4-0.4-0.9-0.6-1.4-0.6c-0.5,0-1.1,0.2-1.4,0.6c-0.4,0.4-0.6,0.9-0.6,1.4
		c0,0.5,0.2,1.1,0.6,1.4c0.4,0.4,0.9,0.6,1.4,0.6c0.5,0,1.1-0.2,1.4-0.6C84.3,14.2,84.5,13.7,84.5,13.2z"/>
	<path class="st0" d="M110.7,654.8c0-0.5-0.2-1.1-0.6-1.4c-0.4-0.4-0.9-0.6-1.4-0.6c-0.5,0-1.1,0.2-1.4,0.6
		c-0.4,0.4-0.6,0.9-0.6,1.4s0.2,1.1,0.6,1.4c0.4,0.4,0.9,0.6,1.4,0.6c0.5,0,1.1-0.2,1.4-0.6C110.5,655.9,110.7,655.4,110.7,654.8z"
		/>
	<path class="st0" d="M110.7,625.7c0-1.1-0.9-2-2-2s-2,0.9-2,2c0,1.1,0.9,2,2,2S110.7,626.8,110.7,625.7z"/>
	<path class="st0" d="M110.7,479.8c0-1.1-0.9-2-2-2s-2,0.9-2,2c0,1.1,0.9,2,2,2S110.7,481,110.7,479.8z"/>
	<path class="st0" d="M110.7,596.5c0-1.1-0.9-2-2-2s-2,0.9-2,2c0,1.1,0.9,2,2,2S110.7,597.6,110.7,596.5z"/>
	<path class="st0" d="M110.7,450.7c0-1.1-0.9-2-2-2s-2,0.9-2,2c0,1.1,0.9,2,2,2S110.7,451.8,110.7,450.7z"/>
	<path class="st0" d="M110.7,129.8c0-1.1-0.9-2-2-2s-2,0.9-2,2c0,1.1,0.9,2,2,2S110.7,131,110.7,129.8z"/>
	<path class="st0" d="M110.7,538.2c0-1.1-0.9-2-2-2s-2,0.9-2,2c0,1.1,0.9,2,2,2S110.7,539.3,110.7,538.2z"/>
	<path class="st0" d="M110.7,71.5c0-1.1-0.9-2-2-2s-2,0.9-2,2c0,1.1,0.9,2,2,2S110.7,72.6,110.7,71.5z"/>
	<path class="st0" d="M110.7,100.7c0-1.1-0.9-2-2-2s-2,0.9-2,2c0,1.1,0.9,2,2,2S110.7,101.8,110.7,100.7z"/>
	<path class="st0" d="M110.7,567.3c0-1.1-0.9-2-2-2s-2,0.9-2,2c0,1.1,0.9,2,2,2S110.7,568.5,110.7,567.3z"/>
	<path class="st0" d="M110.7,275.7c0-1.1-0.9-2-2-2s-2,0.9-2,2s0.9,2,2,2S110.7,276.8,110.7,275.7z"/>
	<path class="st0" d="M110.7,42.3c0-1.1-0.9-2-2-2s-2,0.9-2,2c0,1.1,0.9,2,2,2S110.7,43.4,110.7,42.3z"/>
	<path class="st0" d="M110.7,509c0-1.1-0.9-2-2-2s-2,0.9-2,2c0,1.1,0.9,2,2,2S110.7,510.1,110.7,509z"/>
	<path class="st0" d="M110.7,334c0-1.1-0.9-2-2-2s-2,0.9-2,2c0,1.1,0.9,2,2,2S110.7,335.1,110.7,334z"/>
	<path class="st0" d="M110.7,217.3c0-1.1-0.9-2-2-2s-2,0.9-2,2c0,1.1,0.9,2,2,2S110.7,218.5,110.7,217.3z"/>
	<path class="st0" d="M110.7,188.2c0-1.1-0.9-2-2-2s-2,0.9-2,2s0.9,2,2,2S110.7,189.3,110.7,188.2z"/>
	<path class="st0" d="M110.7,304.8c0-1.1-0.9-2-2-2s-2,0.9-2,2c0,1.1,0.9,2,2,2S110.7,306,110.7,304.8z"/>
	<path class="st0" d="M110.7,392.3c0-1.1-0.9-2-2-2s-2,0.9-2,2c0,1.1,0.9,2,2,2S110.7,393.5,110.7,392.3z"/>
	<path class="st0" d="M110.7,246.5c0-1.1-0.9-2-2-2s-2,0.9-2,2c0,1.1,0.9,2,2,2S110.7,247.6,110.7,246.5z"/>
	<path class="st0" d="M110.7,363.2c0-1.1-0.9-2-2-2s-2,0.9-2,2c0,1.1,0.9,2,2,2S110.7,364.3,110.7,363.2z"/>
	<path class="st0" d="M110.7,159c0-1.1-0.9-2-2-2s-2,0.9-2,2c0,1.1,0.9,2,2,2S110.7,160.1,110.7,159z"/>
	<path class="st0" d="M110.7,421.5c0-1.1-0.9-2-2-2s-2,0.9-2,2s0.9,2,2,2S110.7,422.6,110.7,421.5z"/>
	<path class="st0" d="M110.7,13.2c0-0.5-0.2-1.1-0.6-1.4c-0.4-0.4-0.9-0.6-1.4-0.6c-0.5,0-1.1,0.2-1.4,0.6c-0.4,0.4-0.6,0.9-0.6,1.4
		c0,0.5,0.2,1.1,0.6,1.4s0.9,0.6,1.4,0.6c0.5,0,1.1-0.2,1.4-0.6C110.5,14.2,110.7,13.7,110.7,13.2z"/>
	<path class="st0" d="M132.9,654.8c0,0.5,0.2,1.1,0.6,1.4c0.4,0.4,0.9,0.6,1.4,0.6c0.5,0,1.1-0.2,1.4-0.6c0.4-0.4,0.6-0.9,0.6-1.4
		s-0.2-1.1-0.6-1.4c-0.4-0.4-0.9-0.6-1.4-0.6c-0.5,0-1.1,0.2-1.4,0.6C133.1,653.8,132.9,654.3,132.9,654.8z"/>
	<circle class="st0" cx="135" cy="596.5" r="2"/>
	<circle class="st0" cx="135" cy="304.8" r="2"/>
	<circle class="st0" cx="135" cy="217.3" r="2"/>
	<path class="st0" d="M137,42.3c0-1.1-0.9-2-2-2c-1.1,0-2,0.9-2,2c0,1.1,0.9,2,2,2C136.1,44.4,137,43.4,137,42.3z"/>
	<circle class="st0" cx="135" cy="275.7" r="2"/>
	<circle class="st0" cx="135" cy="246.5" r="2"/>
	<circle class="st0" cx="135" cy="129.8" r="2"/>
	<path class="st0" d="M137,625.7c0-1.1-0.9-2-2-2c-1.1,0-2,0.9-2,2c0,1.1,0.9,2,2,2C136.1,627.7,137,626.8,137,625.7z"/>
	<circle class="st0" cx="135" cy="71.5" r="2"/>
	<path class="st0" d="M137,509c0-1.1-0.9-2-2-2c-1.1,0-2,0.9-2,2c0,1.1,0.9,2,2,2C136.1,511,137,510.1,137,509z"/>
	<circle class="st0" cx="135" cy="188.2" r="2"/>
	<path class="st0" d="M137,159c0-1.1-0.9-2-2-2c-1.1,0-2,0.9-2,2c0,1.1,0.9,2,2,2C136.1,161,137,160.1,137,159z"/>
	<path class="st0" d="M137,363.2c0-1.1-0.9-2-2-2c-1.1,0-2,0.9-2,2c0,1.1,0.9,2,2,2C136.1,365.2,137,364.3,137,363.2z"/>
	<circle class="st0" cx="135" cy="392.3" r="2"/>
	<circle class="st0" cx="135" cy="567.3" r="2"/>
	<path class="st0" d="M137,100.7c0-1.1-0.9-2-2-2c-1.1,0-2,0.9-2,2c0,1.1,0.9,2,2,2C136.1,102.7,137,101.8,137,100.7z"/>
	<path class="st0" d="M137,334c0-1.1-0.9-2-2-2c-1.1,0-2,0.9-2,2c0,1.1,0.9,2,2,2C136.1,336,137,335.1,137,334z"/>
	<circle class="st0" cx="135" cy="538.2" r="2"/>
	<circle class="st0" cx="135" cy="450.7" r="2"/>
	<path class="st0" d="M137,479.8c0-1.1-0.9-2-2-2c-1.1,0-2,0.9-2,2c0,1.1,0.9,2,2,2C136.1,481.9,137,481,137,479.8z"/>
	<circle class="st0" cx="135" cy="421.5" r="2"/>
	<path class="st0" d="M137,13.2c0-0.5-0.2-1.1-0.6-1.4c-0.4-0.4-0.9-0.6-1.4-0.6c-0.5,0-1.1,0.2-1.4,0.6c-0.4,0.4-0.6,0.9-0.6,1.4
		c0,0.5,0.2,1.1,0.6,1.4c0.4,0.4,0.9,0.6,1.4,0.6c0.5,0,1.1-0.2,1.4-0.6C136.8,14.2,137,13.7,137,13.2z"/>
</g>
</svg>
