<?xml version="1.0" encoding="utf-8"?>
<!-- Generator: Adobe Illustrator 24.3.0, SVG Export Plug-In . SVG Version: 6.00 Build 0)  -->
<svg version="1.1" id="Layer_1" xmlns="http://www.w3.org/2000/svg" xmlns:xlink="http://www.w3.org/1999/xlink" x="0px" y="0px"
	 viewBox="0 0 512 512" style="enable-background:new 0 0 512 512;" xml:space="preserve">
<style type="text/css">
	.st0{fill:#FFFFFF;}
</style>
<path class="st0" d="M256,8C119.3,8,8,119.3,8,256s111.3,248,248,248s248-111.3,248-248S392.7,8,256,8z M420,122.4
	c29.5,36,47.4,82,47.8,132c-7-1.5-77-15.7-147.5-6.8c-5.8-14-11.2-26.4-18.6-41.6C380,173.9,415.5,128.4,420,122.4L420,122.4z
	 M396.4,97.9c-3.8,5.4-35.7,48.3-111,76.5c-34.7-63.8-73.2-116.2-79-124C273.5,34.2,344.3,51.7,396.4,97.9z M165.9,64.6
	c5.6,7.7,43.4,60.1,78.5,122.5c-99.1,26.3-186.4,25.9-195.8,25.8C62.4,147.2,106.7,92.6,165.9,64.6z M44.2,256.3
	c0-2.2,0-4.3,0.1-6.5c9.3,0.2,111.9,1.5,217.7-30.1c6.1,11.9,11.9,23.9,17.2,35.9C202.6,277.2,133,339.2,98.6,398
	C64.8,360.4,44.2,310.7,44.2,256.3z M126,423.4c22.1-45.2,82.2-103.6,167.6-132.8c29.7,77.3,42,142.1,45.2,160.6
	C270.6,480.3,188.7,472.4,126,423.4z M374.4,431.9c-2.2-12.9-13.4-74.9-41.2-151c66.4-10.6,124.7,6.8,131.9,9.1
	C455.7,348.9,421.9,399.8,374.4,431.9z"/>
</svg>
